<svg height='300px' width='300px' xmlns="http://www.w3.org/2000/svg" xmlns:xlink="http://www.w3.org/1999/xlink" version="1.1" x="0px" y="0px" viewBox="0 0 100 100" style="enable-background:new 0 0 100 100;" xml:space="preserve">
<g>
<path fill="#f5f5f5" d="M52,81.1c-0.5,2.2-0.7,4.6-0.3,7.3c0.1,0.8,1.1,2,1.8,1.5c1.9-1.1,5.2-4.2,8-9.4c-1.6,0-3.3,0.2-5,0.3   C55,80.9,53.5,81,52,81.1z">
</path>
<path fill="#f5f5f5" d="M24.8,70.9c-1.6,2.5-4.1,10.4-3.1,16.8c0.1,0.8,1.1,1.3,1.8,0.9c1.9-1.1,5.3-6.2,8.1-11.5C28.6,75.2,26.4,73,24.8,70.9z">
</path>
<path fill="#ffffff" d="M68.8,65.6c0,0-9.4-11.6-22-15.1c-5.4-1.5-12.1,0.6-12.2-5c0-21.5,0.2-37-10.7-42.3c-3.2-1.6-5.7-1.5-8.9,0.2   c-1.2,0.6-2.3,1.4-3,2.2c-2,2.4-5.8,6.4-5.8,6.4C4.2,15,6.4,14.8,14,15c7.5,0.2,7.5-4.2,10,0c4.2,7.3-0.9,40.2-0.9,40.2   c-1,7.3,1.9,14.7,7.8,19.1c0.5,0.4,1.1,0.7,1.6,1.1c1.7,4.7,5.3,15.7,13.2,21.7c0,0,4.6,3.6,3.2-3.4c-0.8-3.9-1-11.6-1.9-14.5   c0.8,0,1.6,0.1,2.4,0.1c4,0,7.6-0.4,11.3-0.6c2.9,3.8,7.5,8.3,14.5,11.5c0,0,4.5,2.2,1-4c-1.3-2.3-2.2-4.3-3.2-6.1   c3.7,1.1,7.1,5.1,11.8,8.5c1.9,1.3,5.8,3.8,8.5,3.8c0.3,0,0.6-0.1,0.9-0.2C96.8,90.8,86.7,77.5,68.8,65.6z M16,9.5   c-0.7,0-1.3-0.6-1.3-1.3c0-0.7,0.6-1.3,1.3-1.3c0.7,0,1.3,0.6,1.3,1.3C17.3,8.9,16.7,9.5,16,9.5z">
</path>
</g>
</svg>

